<?xml version="1.0" encoding="UTF-8" standalone="no"?>
<!-- Generator: Adobe Illustrator 24.1.1, SVG Export Plug-In . SVG Version: 6.00 Build 0)  -->

<svg
   version="1.1"
   id="Warstwa_1"
   x="0px"
   y="0px"
   viewBox="0 0 424.30248 183.1"
   xml:space="preserve"
   sodipodi:docname="logotyp IDUB EN poziom kolor.svg"
   inkscape:version="1.1 (c68e22c387, 2021-05-23)"
   width="424.30249"
   height="183.10001"
   xmlns:inkscape="http://www.inkscape.org/namespaces/inkscape"
   xmlns:sodipodi="http://sodipodi.sourceforge.net/DTD/sodipodi-0.dtd"
   xmlns="http://www.w3.org/2000/svg"
   xmlns:svg="http://www.w3.org/2000/svg"><defs
   id="defs103">
	
	

		
		
		
	</defs><sodipodi:namedview
   id="namedview101"
   pagecolor="#ffffff"
   bordercolor="#666666"
   borderopacity="1.0"
   inkscape:pageshadow="2"
   inkscape:pageopacity="0.0"
   inkscape:pagecheckerboard="0"
   showgrid="false"
   inkscape:zoom="11.313709"
   inkscape:cx="408.48675"
   inkscape:cy="154.19347"
   inkscape:window-width="1920"
   inkscape:window-height="1017"
   inkscape:window-x="-8"
   inkscape:window-y="-8"
   inkscape:window-maximized="1"
   inkscape:current-layer="Warstwa_1"
   showguides="true"
   inkscape:guide-bbox="true"
   width="411.20001px"><sodipodi:guide
     position="200.19999,82.500004"
     orientation="1,0"
     id="guide317" /><sodipodi:guide
     position="205.79999,82.500003"
     orientation="0,-1"
     id="guide361" /><sodipodi:guide
     position="252.99999,48.800005"
     orientation="0,-1"
     id="guide363" /><sodipodi:guide
     position="200.39999,34.100005"
     orientation="0,-1"
     id="guide445" /><sodipodi:guide
     position="200.39999,0.50000609"
     orientation="0,-1"
     id="guide447" /><sodipodi:guide
     position="206.89999,111.9"
     orientation="0,-1"
     id="guide569" /><sodipodi:guide
     position="206.69999,95.100003"
     orientation="0,-1"
     id="guide571" /></sodipodi:namedview>
<style
   type="text/css"
   id="style2">
	.st0{fill:#7D7A7B;}
	.st1{fill:#E21F26;}
	.st2{fill:#632B7E;}
</style>
<g
   id="g96">
		<path
   class="st1"
   d="M 150.4,61 H 98.6 93.7 90.9 v 20 h 1.7 v 0.1 c 0.4,0 0.7,-0.1 1.1,-0.1 h 4.9 51.8 c 7,0 12.7,5.7 12.7,12.7 v 56.7 c 0,7 -5.7,12.7 -12.7,12.7 H 93.7 c -7,0 -12.7,-5.7 -12.7,-12.7 v -53.7 -3 c 0,-0.2 0,-0.3 0,-0.4 v 0 -29.7 -6.7 -2.7 -30 C 81,10.8 70.2,0 56.8,0 H 24.2 C 10.8,0 0,10.8 0,24.2 V 56.9 C 0,70.2 10.8,81 24.2,81 H 50.4 V 61 H 24.2 C 21.9,61 20,59.1 20,56.8 V 24.2 C 20,21.9 21.9,20 24.2,20 h 32.7 c 2.3,0 4.2,1.9 4.2,4.2 v 27.4 2.5 2.7 23.8 13 3 53.7 c 0,18 14.7,32.7 32.7,32.7 h 56.7 c 18,0 32.7,-14.7 32.7,-32.7 V 93.7 C 183.1,75.7 168.4,61 150.4,61 Z"
   id="path90" />
		<polygon
   class="st2"
   points="50.4,81 50.4,61 35.7,61 "
   id="polygon92" />
		<polygon
   class="st2"
   points="90.9,61 90.9,81 105.7,81 "
   id="polygon94" />
	</g>
<g
   id="g243"
   transform="matrix(1.4161563,0,0,-1.4161563,219.69764,149.02435)"><path
     d="m 0,0 h -5.298 v -18.052 c 0,-0.632 -0.087,-1.068 -0.261,-1.308 -0.175,-0.24 -0.578,-0.36 -1.21,-0.36 -0.524,0 -0.883,0.087 -1.08,0.262 -0.261,0.196 -0.392,0.665 -0.392,1.406 V 0 h -5.527 v -16.057 c 0,-1.614 0.054,-2.802 0.164,-3.565 0.174,-1.111 0.523,-2.006 1.046,-2.681 0.567,-0.742 1.428,-1.232 2.584,-1.472 0.675,-0.152 1.7,-0.229 3.074,-0.229 1.351,0 2.376,0.077 3.074,0.229 1.155,0.24 2.005,0.72 2.551,1.439 0.544,0.72 0.904,1.613 1.079,2.682 0.131,0.785 0.196,1.983 0.196,3.597 z M 21.42,0 H 16.417 L 16.744,-18.739 12.46,0 H 4.676 V -23.709 H 9.68 l -0.36,19.261 4.35,-19.261 h 7.75 z m 10.399,0 h -5.527 v -23.709 h 5.527 z M 45.358,0 43.265,-20.766 41.237,0 h -5.69 l 3.303,-23.709 h 8.863 L 51.048,0 Z m 20.177,-19.458 h -5.363 v 5.886 h 4.611 v 4.088 h -4.611 v 5.233 h 4.905 V 0 H 54.645 v -23.709 h 10.89 z m 18.15,13.375 c 0,2.486 -0.645,4.154 -1.934,5.004 C 80.614,-0.36 78.451,0 75.261,0 h -5.769 v -23.709 h 5.539 v 8.143 h 0.918 c 0.808,0 1.371,-0.153 1.688,-0.458 0.317,-0.306 0.475,-0.873 0.475,-1.701 v -5.984 h 5.441 v 6.213 c 0,2.398 -1.234,3.772 -3.703,4.121 1.354,0.239 2.332,0.719 2.933,1.439 0.601,0.719 0.902,1.765 0.902,3.139 z m -5.92,-5.101 c -0.261,-0.218 -0.73,-0.327 -1.406,-0.327 h -1.341 v 7.325 h 1.341 c 0.676,0 1.145,-0.109 1.406,-0.327 0.262,-0.218 0.393,-0.676 0.393,-1.373 v -3.925 c 0,-0.698 -0.131,-1.156 -0.393,-1.373 m 23.677,-4.023 c 0,1.635 -0.278,2.84 -0.834,3.614 -0.556,0.774 -1.608,1.379 -3.156,1.815 -2.071,0.589 -3.15,0.904 -3.237,0.948 -0.72,0.349 -1.079,0.981 -1.079,1.897 v 1.537 c 0,0.632 0.108,1.063 0.327,1.292 0.217,0.229 0.61,0.343 1.177,0.343 0.654,0 1.068,-0.136 1.243,-0.409 0.174,-0.272 0.261,-0.757 0.261,-1.455 v -1.471 h 4.906 v 1.831 c 0,2.114 -0.339,3.51 -1.014,4.186 -0.916,0.915 -2.606,1.373 -5.069,1.373 h -1.635 c -2.093,0 -3.538,-0.435 -4.333,-1.306 -0.796,-0.87 -1.194,-2.34 -1.194,-4.407 v -2.188 c 0,-1.655 0.278,-2.872 0.834,-3.657 0.556,-0.783 1.619,-1.404 3.189,-1.86 0.762,-0.175 1.526,-0.36 2.289,-0.555 0.763,-0.197 1.291,-0.474 1.586,-0.833 0.294,-0.36 0.441,-0.964 0.441,-1.812 v -1.666 c 0,-0.696 -0.114,-1.164 -0.343,-1.403 -0.229,-0.24 -0.66,-0.359 -1.292,-0.359 -1.068,0 -1.602,0.566 -1.602,1.7 v 2.289 h -5.102 v -2.583 c 0,-2.146 0.436,-3.626 1.308,-4.439 0.872,-0.813 2.486,-1.219 4.84,-1.219 h 1.472 c 2.137,0 3.673,0.436 4.611,1.308 0.937,0.872 1.406,2.3 1.406,4.284 z M 111.416,0 h -5.527 v -23.709 h 5.527 z M 127.8,0 h -12.951 v -4.251 h 3.696 v -19.458 h 5.527 V -4.251 H 127.8 Z M 139.245,0 137.119,-10.726 134.83,0 h -5.592 l 4.906,-16.024 v -7.685 h 5.526 v 7.685 L 144.479,0 Z"
     style="fill:#706d6e;fill-opacity:1;fill-rule:nonzero;stroke:none"
     id="path245" /></g><g
   id="g247"
   transform="matrix(1.4202631,0,0,-1.4202631,220.35779,109.26502)"><path
     d="m 0,0 c 0,2.484 -0.645,4.152 -1.934,5.004 -1.136,0.719 -3.299,1.079 -6.49,1.079 h -5.769 v -23.71 h 5.54 v 8.143 h 0.917 c 0.809,0 1.372,-0.154 1.689,-0.458 0.316,-0.305 0.475,-0.872 0.475,-1.701 v -5.984 h 5.441 v 6.214 c 0,2.397 -1.235,3.77 -3.704,4.12 1.355,0.239 2.333,0.72 2.934,1.439 C -0.3,-5.135 0,-4.088 0,-2.714 Z M -5.919,-5.103 C -6.181,-5.32 -6.65,-5.43 -7.325,-5.43 h -1.341 v 7.326 h 1.341 c 0.675,0 1.144,-0.109 1.406,-0.327 0.261,-0.217 0.392,-0.675 0.392,-1.374 v -3.924 c 0,-0.698 -0.131,-1.156 -0.392,-1.374 m 21.322,-8.272 H 10.04 v 5.886 h 4.611 v 4.088 H 10.04 v 5.232 h 4.905 V 6.083 H 4.513 v -23.71 h 10.89 z m 17.201,4.251 c 0,1.635 -0.278,2.839 -0.834,3.613 -0.556,0.774 -1.608,1.379 -3.156,1.816 -2.071,0.588 -3.15,0.904 -3.237,0.948 -0.72,0.348 -1.079,0.98 -1.079,1.896 v 1.538 c 0,0.631 0.108,1.063 0.327,1.292 0.217,0.228 0.61,0.342 1.177,0.342 0.654,0 1.068,-0.136 1.243,-0.408 0.174,-0.273 0.261,-0.759 0.261,-1.455 v -1.473 h 4.906 v 1.832 c 0,2.115 -0.339,3.51 -1.014,4.187 -0.916,0.915 -2.606,1.373 -5.069,1.373 H 24.494 C 22.401,6.377 20.956,5.941 20.161,5.07 19.365,4.199 18.967,2.73 18.967,0.663 v -2.187 c 0,-1.656 0.278,-2.873 0.834,-3.658 0.556,-0.783 1.619,-1.403 3.188,-1.86 0.763,-0.174 1.526,-0.359 2.29,-0.556 0.763,-0.195 1.291,-0.472 1.586,-0.833 0.294,-0.358 0.441,-0.963 0.441,-1.811 v -1.665 c 0,-0.697 -0.114,-1.164 -0.343,-1.405 -0.229,-0.239 -0.66,-0.358 -1.292,-0.358 -1.068,0 -1.602,0.566 -1.602,1.7 v 2.289 h -5.102 v -2.584 c 0,-2.145 0.436,-3.625 1.308,-4.437 0.872,-0.814 2.486,-1.219 4.84,-1.219 h 1.472 c 2.136,0 3.673,0.436 4.611,1.308 0.937,0.872 1.406,2.3 1.406,4.284 z m 15.239,-4.251 H 42.48 v 5.886 h 4.611 v 4.088 H 42.48 v 5.232 h 4.905 V 6.083 H 36.953 v -23.71 h 10.89 z M 62.917,6.083 h -8.828 l -3.532,-23.71 h 5.526 l 0.655,5.82 h 3.499 l 0.654,-5.82 h 5.657 z M 57.228,-7.85 58.536,3.336 59.746,-7.85 Z M 84.273,0 c 0,2.484 -0.646,4.152 -1.934,5.004 -1.136,0.719 -3.299,1.079 -6.49,1.079 H 70.08 v -23.71 h 5.54 v 8.143 h 0.917 c 0.809,0 1.372,-0.154 1.689,-0.458 0.316,-0.305 0.475,-0.872 0.475,-1.701 v -5.984 h 5.441 v 6.214 c 0,2.397 -1.235,3.77 -3.704,4.12 1.354,0.239 2.333,0.72 2.934,1.439 0.601,0.719 0.901,1.766 0.901,3.14 z M 78.354,-5.103 C 78.092,-5.32 77.623,-5.43 76.948,-5.43 h -1.341 v 7.326 h 1.341 c 0.675,0 1.144,-0.109 1.406,-0.327 0.262,-0.217 0.392,-0.675 0.392,-1.374 v -3.924 c 0,-0.698 -0.13,-1.156 -0.392,-1.374 m 24.2,-3.662 h -5.036 v -3.237 c 0,-0.633 -0.088,-1.068 -0.262,-1.309 -0.175,-0.24 -0.546,-0.359 -1.112,-0.359 -0.589,0 -0.96,0.119 -1.112,0.358 -0.153,0.241 -0.229,0.675 -0.229,1.308 V 0.467 c 0,0.544 0.044,0.925 0.131,1.142 0.151,0.349 0.556,0.523 1.21,0.523 0.545,0 0.91,-0.114 1.096,-0.343 0.185,-0.228 0.278,-0.669 0.278,-1.322 v -2.383 h 5.036 v 1.632 c 0,2.59 -0.371,4.342 -1.112,5.257 -0.481,0.587 -1.145,0.979 -1.995,1.174 C 98.749,6.3 97.692,6.377 96.275,6.377 94.64,6.377 93.451,6.3 92.709,6.147 91.707,5.952 90.933,5.559 90.388,4.971 89.843,4.382 89.483,3.641 89.309,2.747 89.178,2.093 89.113,1.079 89.113,-0.294 V -11.25 c 0,-1.373 0.065,-2.388 0.196,-3.041 0.174,-0.916 0.523,-1.657 1.047,-2.225 0.588,-0.631 1.394,-1.046 2.42,-1.243 0.654,-0.107 1.82,-0.162 3.499,-0.162 1.482,0 2.517,0.065 3.107,0.195 0.893,0.177 1.579,0.572 2.06,1.188 0.479,0.615 0.795,1.374 0.948,2.274 0.109,0.658 0.164,1.673 0.164,3.046 z m 18.051,14.848 h -5.526 v -9.124 h -2.878 v 9.124 h -5.527 v -23.71 h 5.527 v 10.334 h 2.878 v -10.334 h 5.526 z"
     style="fill:#706d6e;fill-opacity:1;fill-rule:nonzero;stroke:none"
     id="path249" /></g><g
   id="g239"
   transform="matrix(1.4598153,0,0,-1.4598153,207.69907,86.379605)"><path
     d="m 0,0 h -3.996 v 4.313 h 3.711 v 1.11 H -3.996 V 9.276 H 0 v 1.11 H -5.137 V -1.11 H 0 Z m 5.169,4.709 2.584,5.677 H 6.628 L 4.487,5.661 2.315,10.386 H 1.094 L 3.694,4.931 0.904,-1.11 H 2.045 L 4.36,3.98 6.707,-1.11 h 1.252 z m 9.949,5.042 c -0.449,0.519 -1.197,0.777 -2.243,0.777 h -0.603 c -1.068,0 -1.831,-0.312 -2.291,-0.935 C 9.521,8.969 9.291,7.981 9.291,6.628 V 2.363 c 0,-1.237 0.164,-2.109 0.492,-2.617 0.433,-0.666 1.162,-0.999 2.188,-0.999 h 1.11 c 1.797,0 2.695,1.106 2.695,3.315 0,0.295 -0.005,0.523 -0.016,0.681 H 14.555 V 2.458 C 14.555,1.401 14.46,0.714 14.27,0.396 14.058,0.037 13.583,-0.143 12.843,-0.143 h -0.619 c -0.761,0 -1.247,0.201 -1.458,0.604 -0.18,0.328 -0.27,1.09 -0.27,2.287 v 3.875 c 0,1.048 0.106,1.758 0.317,2.128 0.243,0.424 0.714,0.636 1.411,0.636 h 0.619 c 0.666,0 1.126,-0.196 1.379,-0.587 0.222,-0.359 0.333,-1.02 0.333,-1.982 V 6.675 h 1.221 c 0.011,0.127 0.016,0.307 0.016,0.539 0,1.174 -0.225,2.019 -0.674,2.537 M 22.784,0 h -3.995 v 4.313 h 3.71 v 1.11 h -3.71 v 3.853 h 3.995 v 1.11 H 17.647 V -1.11 h 5.137 z m 6.374,0 H 25.749 V 10.386 H 24.608 V -1.11 h 4.55 z m 5.898,0 H 31.647 V 10.386 H 30.506 V -1.11 h 4.55 z m 6.485,0 h -3.995 v 4.313 h 3.71 v 1.11 h -3.71 v 3.853 h 3.995 v 1.11 H 36.404 V -1.11 h 5.137 z M 50.42,10.386 H 49.31 V 0.174 L 45.045,10.386 H 43.364 V -1.11 h 1.11 V 8.927 L 48.676,-1.11 h 1.744 z m 8.079,-0.635 c -0.45,0.519 -1.197,0.777 -2.244,0.777 h -0.602 c -1.068,0 -1.832,-0.312 -2.292,-0.935 C 52.902,8.969 52.672,7.981 52.672,6.628 V 2.363 c 0,-1.237 0.163,-2.109 0.491,-2.617 0.433,-0.666 1.163,-0.999 2.188,-0.999 h 1.11 c 1.797,0 2.696,1.106 2.696,3.315 0,0.295 -0.006,0.523 -0.016,0.681 H 57.936 V 2.458 c 0,-1.057 -0.095,-1.744 -0.286,-2.062 -0.212,-0.359 -0.687,-0.539 -1.427,-0.539 h -0.619 c -0.76,0 -1.246,0.201 -1.458,0.604 -0.18,0.328 -0.269,1.09 -0.269,2.287 v 3.875 c 0,1.048 0.104,1.758 0.317,2.128 0.243,0.424 0.713,0.636 1.41,0.636 h 0.619 c 0.666,0 1.126,-0.196 1.38,-0.587 0.222,-0.359 0.333,-1.02 0.333,-1.982 V 6.675 h 1.221 c 0.01,0.127 0.016,0.307 0.016,0.539 0,1.174 -0.225,2.019 -0.674,2.537 M 66.165,0 h -3.996 v 4.313 h 3.711 v 1.11 h -3.711 v 3.853 h 3.996 v 1.11 H 61.028 V -1.11 h 5.137 z m 7.42,10.386 H 72.443 V -1.109 h 1.142 z m 9.466,0 h -1.11 V 0.174 L 77.676,10.386 H 75.995 V -1.11 h 1.109 V 8.927 L 81.307,-1.11 h 1.744 z m 3.536,0 H 85.445 V -1.109 h 1.142 z M 94.213,10.37 H 88.156 V 9.26 h 2.458 V -1.11 h 1.142 V 9.26 h 2.457 z m 2.696,0.016 H 95.766 V -1.109 h 1.143 z m 6.071,0 h -1.332 L 98.351,-1.11 h 1.142 l 0.713,2.474 h 3.996 l 0.65,-2.474 h 1.237 z m -2.472,-7.96 1.776,6.406 1.633,-6.406 z m 11.463,7.944 h -6.056 V 9.26 h 2.457 V -1.11 h 1.142 V 9.26 h 2.457 z m 2.696,0.016 h -1.142 V -1.109 h 1.142 z m 7.753,0 -2.6,-9.958 -2.378,9.958 h -1.221 l 2.901,-11.496 h 1.332 l 3.108,11.496 z M 130.205,0 h -3.995 v 4.313 h 3.71 v 1.11 h -3.71 v 3.853 h 3.995 v 1.11 h -5.137 V -1.11 h 5.137 z"
     style="fill:#706d6e;fill-opacity:1;fill-rule:nonzero;stroke:none"
     id="path241" /></g></svg>
